<svg viewBox="43 43 24 24" xmlns="http://www.w3.org/2000/svg" xmlns:xlink="http://www.w3.org/1999/xlink" width="110.000000" height="110.000000" fill="none" customFrame="#000000">
	<defs>
		<clipPath id="clipPath_1">
			<rect width="24.000000" height="24.000000" x="43.000000" y="43.000000" fill="rgb(255,255,255)" />
		</clipPath>
	</defs>
	
	<g id="u:home-alt" clip-path="url(#clipPath_1)" customFrame="url(#clipPath_1)">
		<rect id="u:home-alt" width="24.000000" height="24.000000" x="43.000000" y="43.000000" />
		<path id="Vector" d="M57 45.74L63 51C63.3164 51.283 63.5691 51.6298 63.7415 52.0177C63.9138 52.4056 64.002 52.8256 64 53.25L64 62C64 62.7957 63.6839 63.5587 63.1213 64.1213C62.5587 64.6839 61.7956 65 61 65L49 65C48.2043 65 47.4413 64.6839 46.8787 64.1213C46.3161 63.5587 46 62.7957 46 62L46 53.26C45.9966 52.8339 46.084 52.4119 46.2565 52.0223C46.4289 51.6326 46.6824 51.2841 47 51L53 45.74C53.55 45.2481 54.2621 44.9761 55 44.9761C55.7379 44.9761 56.45 45.2481 57 45.74ZM53 63L57 63L57 58C57 57.7348 56.8946 57.4804 56.7071 57.2929C56.5196 57.1054 56.2652 57 56 57L54 57C53.7348 57 53.4804 57.1054 53.2929 57.2929C53.1054 57.4804 53 57.7348 53 58L53 63Z" fill="rgb(188,51,36)" fill-rule="evenodd" />
	</g>
</svg>
